<svg xmlns="http://www.w3.org/2000/svg" width="1200" height="627" viewBox="0 0 1200 627" fill="none">
  <rect width="1200" height="627" rx="18" fill="#F6F6F8"/>
  <path d="M18 0H1182C1191.94 0 1200 8.059 1200 18V126H0V18C0 8.059 8.059 0 18 0Z" fill="#251B2D"/>

  <g transform="translate(54 34)">
    <rect width="42" height="42" rx="8" fill="#704A8F"/>
    <circle cx="21" cy="21" r="7" stroke="#FFFFFF" stroke-width="2.4"/>
    <path d="m26 26 5 5M14 11h-4v7M28 11h4v7M14 31h-4v-7M28 31h4v-7" stroke="#EADFF2" stroke-width="2.3" stroke-linecap="round"/>
    <text x="56" y="28" fill="#FFFFFF" font-family="Inter,Segoe UI,sans-serif" font-size="23" font-weight="650">ChangeLens</text>
  </g>
  <text x="54" y="104" fill="#CFB4E5" font-family="Inter,Segoe UI,sans-serif" font-size="15">A separable runtime for safe, observable web monitoring</text>

  <text x="54" y="181" fill="#201824" font-family="Inter,Segoe UI,sans-serif" font-size="34" font-weight="650" letter-spacing="-1">From user intent to durable evidence</text>

  <g font-family="Inter,Segoe UI,sans-serif">
    <g transform="translate(54 226)">
      <rect width="208" height="126" rx="8" fill="#FFFFFF" stroke="#2A2033" stroke-opacity=".14"/>
      <circle cx="24" cy="24" r="5" fill="#526F9E"/>
      <text x="38" y="28" fill="#665D6C" font-size="11" font-weight="600">Product UI</text>
      <text x="20" y="66" fill="#201824" font-size="19" font-weight="650">Next.js web</text>
      <text x="20" y="91" fill="#665D6C" font-size="11">Monitor CRUD · editor · diffs</text>
      <text x="20" y="109" fill="#665D6C" font-size="11">Responsive operations workspace</text>
    </g>
    <path d="M278 289H324" stroke="#817987"/><path d="m318 284 7 5-7 5" stroke="#817987"/>

    <g transform="translate(340 226)">
      <rect width="208" height="126" rx="8" fill="#FFFFFF" stroke="#2A2033" stroke-opacity=".14"/>
      <circle cx="24" cy="24" r="5" fill="#704A8F"/>
      <text x="38" y="28" fill="#665D6C" font-size="11" font-weight="600">Control plane</text>
      <text x="20" y="66" fill="#201824" font-size="19" font-weight="650">Fastify API</text>
      <text x="20" y="91" fill="#665D6C" font-size="11">Sessions · validation · exports</text>
      <text x="20" y="109" fill="#665D6C" font-size="11">Monitor and execution contracts</text>
    </g>
    <path d="M564 289H610" stroke="#817987"/><path d="m604 284 7 5-7 5" stroke="#817987"/>

    <g transform="translate(626 226)">
      <rect width="208" height="126" rx="8" fill="#FFFFFF" stroke="#2A2033" stroke-opacity=".14"/>
      <circle cx="24" cy="24" r="5" fill="#A56B23"/>
      <text x="38" y="28" fill="#665D6C" font-size="11" font-weight="600">Job state</text>
      <text x="20" y="66" fill="#201824" font-size="19" font-weight="650">Redis + BullMQ</text>
      <text x="20" y="91" fill="#665D6C" font-size="11">Schedules · retries · backoff</text>
      <text x="20" y="109" fill="#665D6C" font-size="11">Per-domain concurrency</text>
    </g>
    <path d="M850 289H896" stroke="#817987"/><path d="m890 284 7 5-7 5" stroke="#817987"/>

    <g transform="translate(912 226)">
      <rect width="234" height="126" rx="8" fill="#FFFFFF" stroke="#2A2033" stroke-opacity=".14"/>
      <circle cx="24" cy="24" r="5" fill="#B34F5E"/>
      <text x="38" y="28" fill="#665D6C" font-size="11" font-weight="600">Extraction runtime</text>
      <text x="20" y="66" fill="#201824" font-size="19" font-weight="650">Crawlee workers</text>
      <text x="20" y="91" fill="#665D6C" font-size="11">Cheerio · Playwright · captures</text>
      <text x="20" y="109" fill="#665D6C" font-size="11">robots.txt · SSRF · webhooks</text>
    </g>
  </g>

  <g transform="translate(340 405)">
    <rect width="494" height="92" rx="8" fill="#FFFFFF" stroke="#2A2033" stroke-opacity=".14"/>
    <circle cx="28" cy="46" r="17" fill="#704A8F" fill-opacity=".1"/>
    <path d="M21 43h14M21 48h14M24 38h8M24 53h8" stroke="#704A8F" stroke-width="1.6" stroke-linecap="round"/>
    <text x="58" y="38" fill="#665D6C" font-family="Inter,Segoe UI,sans-serif" font-size="11" font-weight="600">Durable source of truth</text>
    <text x="58" y="64" fill="#201824" font-family="ui-monospace,SFMono-Regular,monospace" font-size="13">PostgreSQL · snapshots · field diffs · audit trail</text>
  </g>
  <path d="M444 352V405M730 352V405M1029 352V451H834" stroke="#817987" stroke-dasharray="4 4"/>

  <g transform="translate(54 546)" font-family="ui-monospace,SFMono-Regular,monospace" font-size="10">
    <text fill="#704A8F">SSRF policy</text><text x="105" fill="#817987">·</text>
    <text x="122" fill="#704A8F">robots.txt</text><text x="206" fill="#817987">·</text>
    <text x="223" fill="#704A8F">domain pacing</text><text x="335" fill="#817987">·</text>
    <text x="352" fill="#704A8F">private captures</text><text x="482" fill="#817987">·</text>
    <text x="499" fill="#704A8F">signed alerts</text><text x="604" fill="#817987">·</text>
    <text x="621" fill="#704A8F">Prometheus</text>
  </g>
  <text x="54" y="592" fill="#817987" font-family="ui-monospace,SFMono-Regular,monospace" font-size="10">github.com/JMDcore/JMD-ChangeLens</text>
</svg>
