<svg xmlns="http://www.w3.org/2000/svg" width="1200" height="627" viewBox="0 0 1200 627" fill="none">
  <defs><linearGradient id="b" x1="0" y1="0" x2="1200" y2="627" gradientUnits="userSpaceOnUse"><stop stop-color="#0D151B"/><stop offset="1" stop-color="#070A0E"/></linearGradient><pattern id="g" width="34" height="34" patternUnits="userSpaceOnUse"><path d="M34 0H0V34" stroke="#9FB5B9" stroke-opacity=".035"/></pattern></defs>
  <rect width="1200" height="627" rx="18" fill="url(#b)"/><rect width="1200" height="627" rx="18" fill="url(#g)"/>
  <g transform="translate(54 48)"><rect width="42" height="42" rx="11" fill="#111A21" stroke="#55C8A7" stroke-opacity=".2"/><circle cx="21" cy="21" r="7" stroke="#E9F3F0" stroke-width="2.4"/><path d="m26 26 5 5M14 11h-4v7M28 11h4v7M14 31h-4v-7M28 31h4v-7" stroke="#55C8A7" stroke-width="2.3" stroke-linecap="round"/><text x="56" y="28" fill="#EAF2F0" font-family="Inter,Segoe UI,sans-serif" font-size="23" font-weight="650">ChangeLens</text></g>
  <text x="54" y="138" fill="#55C8A7" font-family="ui-monospace,monospace" font-size="11" letter-spacing="1.8">ARCHITECTURE / BACKGROUND PROCESSING</text>
  <text x="54" y="188" fill="#EEF4F2" font-family="Inter,Segoe UI,sans-serif" font-size="38" font-weight="580" letter-spacing="-1.5">Three runtimes. One observable flow.</text>
  <g font-family="Inter,Segoe UI,sans-serif">
    <g transform="translate(54 243)"><rect width="202" height="112" rx="10" fill="#111A21" stroke="#78A7FF" stroke-opacity=".28"/><text x="18" y="30" fill="#78A7FF" font-family="ui-monospace,monospace" font-size="9">01 · PRODUCT</text><text x="18" y="61" fill="#E5EEEB" font-size="18" font-weight="600">Next.js web</text><text x="18" y="83" fill="#718187" font-size="10">Dense operations UI</text></g>
    <path d="M270 299h52" stroke="#52636A"/><path d="m316 294 7 5-7 5" stroke="#52636A"/>
    <g transform="translate(336 243)"><rect width="202" height="112" rx="10" fill="#111A21" stroke="#55C8A7" stroke-opacity=".28"/><text x="18" y="30" fill="#55C8A7" font-family="ui-monospace,monospace" font-size="9">02 · CONTROL PLANE</text><text x="18" y="61" fill="#E5EEEB" font-size="18" font-weight="600">Fastify API</text><text x="18" y="83" fill="#718187" font-size="10">Auth · CRUD · exports</text></g>
    <path d="M552 299h52" stroke="#52636A"/><path d="m598 294 7 5-7 5" stroke="#52636A"/>
    <g transform="translate(618 243)"><rect width="202" height="112" rx="10" fill="#111A21" stroke="#F0B860" stroke-opacity=".28"/><text x="18" y="30" fill="#F0B860" font-family="ui-monospace,monospace" font-size="9">03 · QUEUE</text><text x="18" y="61" fill="#E5EEEB" font-size="18" font-weight="600">Redis + BullMQ</text><text x="18" y="83" fill="#718187" font-size="10">Retries · schedules · state</text></g>
    <path d="M834 299h52" stroke="#52636A"/><path d="m880 294 7 5-7 5" stroke="#52636A"/>
    <g transform="translate(900 243)"><rect width="246" height="112" rx="10" fill="#111A21" stroke="#AF95FF" stroke-opacity=".28"/><text x="18" y="30" fill="#AF95FF" font-family="ui-monospace,monospace" font-size="9">04 · DATA PLANE</text><text x="18" y="61" fill="#E5EEEB" font-size="18" font-weight="600">Crawlee workers</text><text x="18" y="83" fill="#718187" font-size="10">Cheerio · Playwright · webhooks</text></g>
  </g>
  <g transform="translate(336 400)" font-family="ui-monospace,monospace"><rect width="484" height="84" rx="9" fill="#0C1218" stroke="#9FB5B9" stroke-opacity=".13"/><text x="20" y="27" fill="#53636A" font-size="8">DURABLE SOURCE OF TRUTH</text><text x="20" y="55" fill="#B8C7C4" font-size="13">PostgreSQL · normalized history · field diffs</text><circle cx="453" cy="42" r="15" fill="#55C8A7" fill-opacity=".09" stroke="#55C8A7" stroke-opacity=".2"/><path d="m447 42 4 4 8-9" stroke="#55C8A7" stroke-width="2" stroke-linecap="round" stroke-linejoin="round"/></g>
  <path d="M437 355v45M719 355v45M1023 355v91H820" stroke="#52636A" stroke-dasharray="4 4"/>
  <g transform="translate(54 524)" font-family="ui-monospace,monospace" font-size="10"><text fill="#55C8A7">✓ SSRF policy</text><text x="165" fill="#55C8A7">✓ robots.txt</text><text x="307" fill="#55C8A7">✓ domain pacing</text><text x="482" fill="#55C8A7">✓ private captures</text><text x="674" fill="#55C8A7">✓ signed alerts</text><text x="833" fill="#55C8A7">✓ Prometheus</text></g>
  <text x="54" y="584" fill="#4D5B60" font-family="ui-monospace,monospace" font-size="10">github.com/JMDcore/JMD-ChangeLens</text>
</svg>
