<svg xmlns="http://www.w3.org/2000/svg" width="1280" height="640" viewBox="0 0 1280 640" fill="none">
  <defs>
    <linearGradient id="bg" x1="120" y1="20" x2="1110" y2="650" gradientUnits="userSpaceOnUse"><stop stop-color="#F7F5F8"/><stop offset="1" stop-color="#EFEAF3"/></linearGradient>
    <radialGradient id="glow" cx="0" cy="0" r="1" gradientTransform="translate(315 250) rotate(38) scale(520 430)" gradientUnits="userSpaceOnUse"><stop stop-color="#71519A" stop-opacity=".12"/><stop offset="1" stop-color="#71519A" stop-opacity="0"/></radialGradient>
    <pattern id="grid" width="40" height="40" patternUnits="userSpaceOnUse"><path d="M40 0H0V40" stroke="#6D6275" stroke-opacity=".04"/></pattern>
    <filter id="shadow" x="-30%" y="-30%" width="160%" height="180%"><feDropShadow dx="0" dy="20" stdDeviation="22" flood-color="#000" flood-opacity=".45"/></filter>
  </defs>
  <rect width="1280" height="640" rx="24" fill="url(#bg)"/>
  <rect width="1280" height="640" rx="24" fill="url(#glow)"/>
  <rect width="1280" height="640" rx="24" fill="url(#grid)"/>
  <g transform="translate(72 70)">
    <rect width="52" height="52" rx="11" fill="#68468C"/>
    <path d="M18 13h-5v9M34 13h5v9M18 39h-5v-9M34 39h5v-9" stroke="#EADFF2" stroke-width="2.8" stroke-linecap="round" stroke-linejoin="round"/>
    <circle cx="26" cy="26" r="8.5" stroke="#FFFFFF" stroke-width="2.8"/>
    <path d="m32 32 5 5" stroke="#FFFFFF" stroke-width="2.8" stroke-linecap="round"/>
    <circle cx="26" cy="26" r="2.3" fill="#EADFF2"/>
    <text x="68" y="35" fill="#241D2D" font-family="Inter,Segoe UI,sans-serif" font-size="27" font-weight="650" letter-spacing="-1">ChangeLens</text>
  </g>
  <g transform="translate(72 190)">
    <text fill="#71519A" font-family="ui-monospace,SFMono-Regular,monospace" font-size="12" font-weight="600" letter-spacing="2">SAFE WEB MONITORING</text>
    <text y="72" fill="#241D2D" font-family="Inter,Segoe UI,sans-serif" font-size="56" font-weight="570" letter-spacing="-2.7">See the web change.</text>
    <text y="132" fill="#241D2D" font-family="Inter,Segoe UI,sans-serif" font-size="56" font-weight="570" letter-spacing="-2.7">Know what changed.</text>
    <text y="184" fill="#72697B" font-family="Inter,Segoe UI,sans-serif" font-size="17">Safe extraction · background jobs · evidence · structured diffs</text>
  </g>
  <g transform="translate(72 492)">
    <g><rect width="155" height="38" rx="19" fill="#71519A" fill-opacity=".08" stroke="#71519A" stroke-opacity=".17"/><circle cx="20" cy="19" r="4" fill="#71519A"/><text x="33" y="24" fill="#604678" font-family="ui-monospace,monospace" font-size="11">Crawlee + Playwright</text></g>
    <g transform="translate(168)"><rect width="126" height="38" rx="19" fill="#526F9E" fill-opacity=".08" stroke="#526F9E" stroke-opacity=".17"/><circle cx="20" cy="19" r="4" fill="#526F9E"/><text x="33" y="24" fill="#526F9E" font-family="ui-monospace,monospace" font-size="11">BullMQ workers</text></g>
    <g transform="translate(307)"><rect width="134" height="38" rx="19" fill="#AF95FF" fill-opacity=".08" stroke="#AF95FF" stroke-opacity=".17"/><circle cx="20" cy="19" r="4" fill="#AF95FF"/><text x="33" y="24" fill="#71519A" font-family="ui-monospace,monospace" font-size="11">SSRF hardened</text></g>
  </g>
  <g transform="translate(710 82) rotate(1 245 240)">
    <rect width="500" height="470" rx="13" fill="#FFFFFF" stroke="#6D6275" stroke-opacity=".15"/>
    <rect x="1" y="1" width="498" height="49" rx="12" fill="#F8F6FA"/>
    <circle cx="21" cy="25" r="4" fill="#B34F5E"/><circle cx="35" cy="25" r="4" fill="#A56B23"/><circle cx="49" cy="25" r="4" fill="#71519A"/>
    <rect x="76" y="17" width="235" height="16" rx="4" fill="#EEEAF2"/><text x="87" y="28" fill="#8F8796" font-family="ui-monospace,monospace" font-size="7">changelens / operations</text>
    <rect x="17" y="67" width="466" height="71" rx="8" fill="#F8F6FA" stroke="#6D6275" stroke-opacity=".10"/>
    <text x="31" y="87" fill="#817887" font-family="ui-monospace,monospace" font-size="7">ACTIVE MONITORS</text><text x="31" y="118" fill="#241D2D" font-family="ui-monospace,monospace" font-size="25">3</text>
    <line x1="137" y1="80" x2="137" y2="125" stroke="#6D6275" stroke-opacity=".10"/><text x="154" y="87" fill="#817887" font-family="ui-monospace,monospace" font-size="7">SUCCESS · 24H</text><text x="154" y="118" fill="#71519A" font-family="ui-monospace,monospace" font-size="22">97.3%</text>
    <line x1="290" y1="80" x2="290" y2="125" stroke="#6D6275" stroke-opacity=".10"/><text x="307" y="87" fill="#817887" font-family="ui-monospace,monospace" font-size="7">CHANGES</text><text x="307" y="118" fill="#A56B23" font-family="ui-monospace,monospace" font-size="22">7</text>
    <rect x="17" y="151" width="294" height="298" rx="8" fill="#FCFBFD" stroke="#6D6275" stroke-opacity=".10"/><text x="32" y="177" fill="#433A4C" font-family="Inter,Segoe UI,sans-serif" font-size="10" font-weight="600">Monitor fleet</text>
    <g font-family="ui-monospace,monospace" font-size="7"><text x="32" y="205" fill="#8F8796">TARGET</text><text x="191" y="205" fill="#8F8796">STATUS</text><text x="254" y="205" fill="#8F8796">LAST</text></g>
    <g font-family="Inter,Segoe UI,sans-serif" font-size="9"><text x="52" y="239" fill="#504757">Lumina desk lamp</text><text x="52" y="286" fill="#504757">Orbit keyboard</text><text x="52" y="333" fill="#504757">Atlas API status</text><text x="52" y="380" fill="#504757">Northstar releases</text></g>
    <g fill="#526F9E" fill-opacity=".10" stroke="#526F9E" stroke-opacity=".14"><rect x="31" y="221" width="13" height="13" rx="4"/><rect x="31" y="268" width="13" height="13" rx="4"/><rect x="31" y="315" width="13" height="13" rx="4"/><rect x="31" y="362" width="13" height="13" rx="4"/></g>
    <g font-family="ui-monospace,monospace" font-size="6"><text x="196" y="238" fill="#A56B23">● CHANGED</text><text x="196" y="285" fill="#71519A">● HEALTHY</text><text x="196" y="332" fill="#B34F5E">● FAILING</text><text x="196" y="379" fill="#75868B">● PAUSED</text><text x="257" y="238" fill="#8B8291">8m</text><text x="257" y="285" fill="#8B8291">34m</text><text x="257" y="332" fill="#8B8291">3m</text><text x="257" y="379" fill="#8B8291">3d</text></g>
    <path d="M31 251H296M31 298H296M31 345H296M31 392H296" stroke="#6D6275" stroke-opacity=".07"/>
    <rect x="324" y="151" width="159" height="139" rx="8" fill="#FCFBFD" stroke="#6D6275" stroke-opacity=".10"/><text x="339" y="177" fill="#433A4C" font-family="Inter,Segoe UI,sans-serif" font-size="10" font-weight="600">Queue activity</text>
    <rect x="339" y="198" width="129" height="5" rx="2" fill="#DDD7E2"/><rect x="339" y="198" width="58" height="5" rx="2" fill="#71519A"/><text x="339" y="229" fill="#817887" font-family="ui-monospace,monospace" font-size="7">WAIT 03</text><text x="410" y="229" fill="#71519A" font-family="ui-monospace,monospace" font-size="7">ACTIVE 02</text><text x="339" y="254" fill="#A56B23" font-family="ui-monospace,monospace" font-size="7">DELAY 04</text><text x="410" y="254" fill="#B34F5E" font-family="ui-monospace,monospace" font-size="7">FAILED 01</text>
    <rect x="324" y="303" width="159" height="146" rx="8" fill="#FCFBFD" stroke="#6D6275" stroke-opacity=".10"/><text x="339" y="329" fill="#433A4C" font-family="Inter,Segoe UI,sans-serif" font-size="10" font-weight="600">Latest change</text>
    <text x="339" y="354" fill="#817887" font-family="ui-monospace,monospace" font-size="7">price</text><rect x="339" y="363" width="56" height="18" rx="3" fill="#B34F5E" fill-opacity=".10"/><text x="347" y="375" fill="#A34554" font-family="ui-monospace,monospace" font-size="7">− 129.00</text><rect x="403" y="363" width="65" height="18" rx="3" fill="#71519A" fill-opacity=".10"/><text x="411" y="375" fill="#5B4670" font-family="ui-monospace,monospace" font-size="7">+ 109.00</text>
    <text x="339" y="402" fill="#817887" font-family="ui-monospace,monospace" font-size="7">availability</text><text x="339" y="424" fill="#A56B23" font-family="ui-monospace,monospace" font-size="8">2 fields changed</text>
  </g>
  <text x="72" y="595" fill="#8A8191" font-family="ui-monospace,monospace" font-size="11">JMDcore / TypeScript · Next.js · PostgreSQL · Redis · S3</text>
</svg>
