<svg xmlns="http://www.w3.org/2000/svg" width="1280" height="640" viewBox="0 0 1280 640" fill="none">
  <rect width="1280" height="640" rx="24" fill="#F6F6F8"/>
  <path d="M24 0H554V640H24C10.745 640 0 629.255 0 616V24C0 10.745 10.745 0 24 0Z" fill="#251B2D"/>

  <g transform="translate(64 58)">
    <rect width="48" height="48" rx="9" fill="#704A8F"/>
    <path d="M16 12H12v8M32 12h4v8M16 36h-4v-8M32 36h4v-8" stroke="#EADFF2" stroke-width="2.6" stroke-linecap="round" stroke-linejoin="round"/>
    <circle cx="24" cy="24" r="8" stroke="#FFFFFF" stroke-width="2.6"/>
    <path d="m29.6 29.6 4.8 4.8" stroke="#FFFFFF" stroke-width="2.6" stroke-linecap="round"/>
    <circle cx="24" cy="24" r="2.4" fill="#EADFF2"/>
    <text x="64" y="32" fill="#FFFFFF" font-family="Inter,Segoe UI,sans-serif" font-size="25" font-weight="650" letter-spacing="-.6">ChangeLens</text>
  </g>

  <g transform="translate(64 184)" font-family="Inter,Segoe UI,sans-serif">
    <text fill="#FFFFFF" font-size="50" font-weight="620" letter-spacing="-2">See the web change.</text>
    <text y="58" fill="#FFFFFF" font-size="50" font-weight="620" letter-spacing="-2">Know what changed.</text>
    <text y="116" fill="#C2B9C6" font-size="17">A visual workspace for safe extraction,</text>
    <text y="142" fill="#C2B9C6" font-size="17">background jobs and inspectable evidence.</text>
  </g>

  <g transform="translate(64 492)" font-family="ui-monospace,SFMono-Regular,monospace" font-size="11">
    <text fill="#CFB4E5">Crawlee + Playwright</text>
    <text x="144" fill="#786C80">/</text>
    <text x="162" fill="#CFB4E5">BullMQ workers</text>
    <text x="276" fill="#786C80">/</text>
    <text x="294" fill="#CFB4E5">SSRF hardened</text>
  </g>
  <text x="64" y="578" fill="#9B90A1" font-family="ui-monospace,SFMono-Regular,monospace" font-size="11">JMDcore · TypeScript · PostgreSQL · Redis · S3</text>

  <g transform="translate(598 48)">
    <rect width="620" height="544" rx="12" fill="#FFFFFF" stroke="#2A2033" stroke-opacity=".14"/>
    <rect width="118" height="544" rx="12" fill="#251B2D"/>
    <path d="M106 0H118V544H106Z" fill="#251B2D"/>
    <rect x="18" y="20" width="28" height="28" rx="6" fill="#704A8F"/>
    <circle cx="32" cy="34" r="5" stroke="#FFFFFF" stroke-width="1.8"/>
    <path d="m35.5 37.5 3.5 3.5M26 27h-3v5M38 27h3v5M26 41h-3v-5M38 41h3v-5" stroke="#EADFF2" stroke-width="1.6" stroke-linecap="round"/>
    <text x="54" y="39" fill="#FFFFFF" font-family="Inter,Segoe UI,sans-serif" font-size="11" font-weight="650">ChangeLens</text>

    <rect x="12" y="92" width="94" height="34" rx="6" fill="#FFFFFF"/>
    <circle cx="27" cy="109" r="4" stroke="#704A8F" stroke-width="1.3"/>
    <text x="40" y="113" fill="#33223F" font-family="Inter,Segoe UI,sans-serif" font-size="9" font-weight="600">Overview</text>
    <text x="40" y="155" fill="#B9AFBF" font-family="Inter,Segoe UI,sans-serif" font-size="9">Monitors</text>
    <text x="40" y="194" fill="#B9AFBF" font-family="Inter,Segoe UI,sans-serif" font-size="9">Runs</text>
    <text x="40" y="233" fill="#B9AFBF" font-family="Inter,Segoe UI,sans-serif" font-size="9">Settings</text>

    <path d="M118 52H620" stroke="#2A2033" stroke-opacity=".12"/>
    <text x="142" y="33" fill="#665D6C" font-family="Inter,Segoe UI,sans-serif" font-size="9">Workspace / Overview</text>
    <text x="142" y="92" fill="#201824" font-family="Inter,Segoe UI,sans-serif" font-size="25" font-weight="650" letter-spacing="-.6">Monitoring overview</text>
    <text x="142" y="116" fill="#665D6C" font-family="Inter,Segoe UI,sans-serif" font-size="10">Health, changes and background activity across public targets.</text>
    <rect x="500" y="80" width="92" height="34" rx="6" fill="#704A8F"/>
    <text x="521" y="101" fill="#FFFFFF" font-family="Inter,Segoe UI,sans-serif" font-size="9" font-weight="600">New monitor</text>

    <path d="M142 148H594M255 148V222M368 148V222M481 148V222M142 222H594" stroke="#2A2033" stroke-opacity=".12"/>
    <g font-family="Inter,Segoe UI,sans-serif">
      <text x="154" y="169" fill="#665D6C" font-size="8">Active monitors</text><text x="154" y="199" fill="#201824" font-size="22" font-weight="650">3</text>
      <text x="267" y="169" fill="#665D6C" font-size="8">Success · 24h</text><text x="267" y="199" fill="#201824" font-size="22" font-weight="650">97.3%</text>
      <text x="380" y="169" fill="#665D6C" font-size="8">Changes · 24h</text><text x="380" y="199" fill="#201824" font-size="22" font-weight="650">7</text>
      <text x="493" y="169" fill="#665D6C" font-size="8">Avg. duration</text><text x="493" y="199" fill="#201824" font-size="22" font-weight="650">4.3s</text>
    </g>

    <rect x="142" y="242" width="292" height="270" rx="8" fill="#FFFFFF" stroke="#2A2033" stroke-opacity=".12"/>
    <text x="158" y="268" fill="#201824" font-family="Inter,Segoe UI,sans-serif" font-size="11" font-weight="650">Monitors</text>
    <text x="158" y="285" fill="#665D6C" font-family="Inter,Segoe UI,sans-serif" font-size="8">Latest state across configured targets</text>
    <path d="M142 302H434" stroke="#2A2033" stroke-opacity=".12"/>
    <g font-family="Inter,Segoe UI,sans-serif" font-size="9">
      <text x="174" y="337" fill="#453B4A" font-weight="600">Lumina desk lamp</text><text x="362" y="337" fill="#A56B23">Changed</text>
      <text x="174" y="385" fill="#453B4A" font-weight="600">Orbit keyboard</text><text x="362" y="385" fill="#3F704A">Healthy</text>
      <text x="174" y="433" fill="#453B4A" font-weight="600">Atlas API status</text><text x="362" y="433" fill="#B34F5E">Failing</text>
      <text x="174" y="481" fill="#453B4A" font-weight="600">Northstar releases</text><text x="362" y="481" fill="#665D6C">Paused</text>
    </g>
    <path d="M158 351H418M158 399H418M158 447H418" stroke="#2A2033" stroke-opacity=".08"/>

    <rect x="450" y="242" width="144" height="122" rx="8" fill="#FFFFFF" stroke="#2A2033" stroke-opacity=".12"/>
    <text x="466" y="268" fill="#201824" font-family="Inter,Segoe UI,sans-serif" font-size="11" font-weight="650">Queue activity</text>
    <rect x="466" y="292" width="112" height="5" rx="2" fill="#E6E3E8"/>
    <rect x="466" y="292" width="48" height="5" rx="2" fill="#704A8F"/>
    <text x="466" y="326" fill="#665D6C" font-family="ui-monospace,monospace" font-size="8">WAIT 3 · ACTIVE 2</text>
    <text x="466" y="346" fill="#A56B23" font-family="ui-monospace,monospace" font-size="8">DELAYED 4 · FAILED 1</text>

    <rect x="450" y="380" width="144" height="132" rx="8" fill="#FFFFFF" stroke="#2A2033" stroke-opacity=".12"/>
    <text x="466" y="406" fill="#201824" font-family="Inter,Segoe UI,sans-serif" font-size="11" font-weight="650">Monitor health</text>
    <text x="466" y="438" fill="#3F704A" font-family="Inter,Segoe UI,sans-serif" font-size="9">Healthy</text><text x="566" y="438" fill="#201824" font-family="ui-monospace,monospace" font-size="9">1</text>
    <text x="466" y="466" fill="#A56B23" font-family="Inter,Segoe UI,sans-serif" font-size="9">Changed</text><text x="566" y="466" fill="#201824" font-family="ui-monospace,monospace" font-size="9">1</text>
    <text x="466" y="494" fill="#B34F5E" font-family="Inter,Segoe UI,sans-serif" font-size="9">Failing</text><text x="566" y="494" fill="#201824" font-family="ui-monospace,monospace" font-size="9">1</text>
  </g>
</svg>
