<svg xmlns="http://www.w3.org/2000/svg" width="1280" height="640" viewBox="0 0 1280 640" fill="none">
  <defs>
    <linearGradient id="bg" x1="120" y1="20" x2="1110" y2="650" gradientUnits="userSpaceOnUse"><stop stop-color="#0D151B"/><stop offset="1" stop-color="#070A0E"/></linearGradient>
    <radialGradient id="glow" cx="0" cy="0" r="1" gradientTransform="translate(315 250) rotate(38) scale(520 430)" gradientUnits="userSpaceOnUse"><stop stop-color="#70E1C1" stop-opacity=".12"/><stop offset="1" stop-color="#70E1C1" stop-opacity="0"/></radialGradient>
    <pattern id="grid" width="40" height="40" patternUnits="userSpaceOnUse"><path d="M40 0H0V40" stroke="#A0B7BC" stroke-opacity=".04"/></pattern>
    <filter id="shadow" x="-30%" y="-30%" width="160%" height="180%"><feDropShadow dx="0" dy="20" stdDeviation="22" flood-color="#000" flood-opacity=".45"/></filter>
  </defs>
  <rect width="1280" height="640" rx="24" fill="url(#bg)"/>
  <rect width="1280" height="640" rx="24" fill="url(#glow)"/>
  <rect width="1280" height="640" rx="24" fill="url(#grid)"/>
  <g transform="translate(72 70)">
    <rect width="52" height="52" rx="14" fill="#111A21" stroke="#70E1C1" stroke-opacity=".18"/>
    <path d="M18 13h-5v9M34 13h5v9M18 39h-5v-9M34 39h5v-9" stroke="#70E1C1" stroke-width="2.8" stroke-linecap="round" stroke-linejoin="round"/>
    <circle cx="26" cy="26" r="8.5" stroke="#E9F3F0" stroke-width="2.8"/>
    <path d="m32 32 5 5" stroke="#70E1C1" stroke-width="2.8" stroke-linecap="round"/>
    <circle cx="26" cy="26" r="2.3" fill="#70E1C1"/>
    <text x="68" y="35" fill="#EAF2F0" font-family="Inter,Segoe UI,sans-serif" font-size="27" font-weight="650" letter-spacing="-1">ChangeLens</text>
  </g>
  <g transform="translate(72 190)">
    <text fill="#70E1C1" font-family="ui-monospace,SFMono-Regular,monospace" font-size="12" font-weight="600" letter-spacing="2">OPERATIONAL WEB INTELLIGENCE</text>
    <text y="72" fill="#EEF5F3" font-family="Inter,Segoe UI,sans-serif" font-size="56" font-weight="570" letter-spacing="-2.7">See the web change.</text>
    <text y="132" fill="#EEF5F3" font-family="Inter,Segoe UI,sans-serif" font-size="56" font-weight="570" letter-spacing="-2.7">Know what changed.</text>
    <text y="184" fill="#829297" font-family="Inter,Segoe UI,sans-serif" font-size="17">Safe extraction · background jobs · evidence · structured diffs</text>
  </g>
  <g transform="translate(72 492)">
    <g><rect width="155" height="38" rx="19" fill="#70E1C1" fill-opacity=".08" stroke="#70E1C1" stroke-opacity=".17"/><circle cx="20" cy="19" r="4" fill="#70E1C1"/><text x="33" y="24" fill="#98DCC9" font-family="ui-monospace,monospace" font-size="11">Crawlee + Playwright</text></g>
    <g transform="translate(168)"><rect width="126" height="38" rx="19" fill="#78A7FF" fill-opacity=".08" stroke="#78A7FF" stroke-opacity=".17"/><circle cx="20" cy="19" r="4" fill="#78A7FF"/><text x="33" y="24" fill="#A6C2F6" font-family="ui-monospace,monospace" font-size="11">BullMQ workers</text></g>
    <g transform="translate(307)"><rect width="134" height="38" rx="19" fill="#AF95FF" fill-opacity=".08" stroke="#AF95FF" stroke-opacity=".17"/><circle cx="20" cy="19" r="4" fill="#AF95FF"/><text x="33" y="24" fill="#C3B4F2" font-family="ui-monospace,monospace" font-size="11">SSRF hardened</text></g>
  </g>
  <g transform="translate(710 82) rotate(1 245 240)" filter="url(#shadow)">
    <rect width="500" height="470" rx="13" fill="#0C1218" stroke="#9DB2B8" stroke-opacity=".15"/>
    <rect x="1" y="1" width="498" height="49" rx="12" fill="#101820"/>
    <circle cx="21" cy="25" r="4" fill="#F17C86"/><circle cx="35" cy="25" r="4" fill="#F0B860"/><circle cx="49" cy="25" r="4" fill="#70E1C1"/>
    <rect x="76" y="17" width="235" height="16" rx="4" fill="#080D12"/><text x="87" y="28" fill="#536168" font-family="ui-monospace,monospace" font-size="7">changelens / operations</text>
    <rect x="17" y="67" width="466" height="71" rx="8" fill="#101820" stroke="#A0B7BC" stroke-opacity=".10"/>
    <text x="31" y="87" fill="#6C7D82" font-family="ui-monospace,monospace" font-size="7">ACTIVE MONITORS</text><text x="31" y="118" fill="#EDF5F2" font-family="ui-monospace,monospace" font-size="25">12</text>
    <line x1="137" y1="80" x2="137" y2="125" stroke="#A0B7BC" stroke-opacity=".10"/><text x="154" y="87" fill="#6C7D82" font-family="ui-monospace,monospace" font-size="7">SUCCESS · 24H</text><text x="154" y="118" fill="#70E1C1" font-family="ui-monospace,monospace" font-size="22">97.3%</text>
    <line x1="290" y1="80" x2="290" y2="125" stroke="#A0B7BC" stroke-opacity=".10"/><text x="307" y="87" fill="#6C7D82" font-family="ui-monospace,monospace" font-size="7">CHANGES</text><text x="307" y="118" fill="#F0B860" font-family="ui-monospace,monospace" font-size="22">7</text>
    <rect x="17" y="151" width="294" height="298" rx="8" fill="#0F161D" stroke="#A0B7BC" stroke-opacity=".10"/><text x="32" y="177" fill="#D8E3E0" font-family="Inter,Segoe UI,sans-serif" font-size="10" font-weight="600">Monitor fleet</text>
    <g font-family="ui-monospace,monospace" font-size="7"><text x="32" y="205" fill="#526168">TARGET</text><text x="191" y="205" fill="#526168">STATUS</text><text x="254" y="205" fill="#526168">LAST</text></g>
    <g font-family="Inter,Segoe UI,sans-serif" font-size="9"><text x="52" y="239" fill="#C3CFCC">Lumina desk lamp</text><text x="52" y="286" fill="#C3CFCC">Orbit keyboard</text><text x="52" y="333" fill="#C3CFCC">Atlas API status</text><text x="52" y="380" fill="#C3CFCC">Northstar releases</text></g>
    <g fill="#78A7FF" fill-opacity=".10" stroke="#78A7FF" stroke-opacity=".14"><rect x="31" y="221" width="13" height="13" rx="4"/><rect x="31" y="268" width="13" height="13" rx="4"/><rect x="31" y="315" width="13" height="13" rx="4"/><rect x="31" y="362" width="13" height="13" rx="4"/></g>
    <g font-family="ui-monospace,monospace" font-size="6"><text x="196" y="238" fill="#F0B860">● CHANGED</text><text x="196" y="285" fill="#70E1C1">● HEALTHY</text><text x="196" y="332" fill="#F17C86">● FAILING</text><text x="196" y="379" fill="#75868B">● PAUSED</text><text x="257" y="238" fill="#64747A">8m</text><text x="257" y="285" fill="#64747A">34m</text><text x="257" y="332" fill="#64747A">3m</text><text x="257" y="379" fill="#64747A">3d</text></g>
    <path d="M31 251H296M31 298H296M31 345H296M31 392H296" stroke="#A0B7BC" stroke-opacity=".07"/>
    <rect x="324" y="151" width="159" height="139" rx="8" fill="#0F161D" stroke="#A0B7BC" stroke-opacity=".10"/><text x="339" y="177" fill="#D8E3E0" font-family="Inter,Segoe UI,sans-serif" font-size="10" font-weight="600">Queue activity</text>
    <rect x="339" y="198" width="129" height="5" rx="2" fill="#253039"/><rect x="339" y="198" width="58" height="5" rx="2" fill="#70E1C1"/><text x="339" y="229" fill="#617177" font-family="ui-monospace,monospace" font-size="7">WAIT 03</text><text x="410" y="229" fill="#70E1C1" font-family="ui-monospace,monospace" font-size="7">ACTIVE 02</text><text x="339" y="254" fill="#F0B860" font-family="ui-monospace,monospace" font-size="7">DELAY 04</text><text x="410" y="254" fill="#F17C86" font-family="ui-monospace,monospace" font-size="7">FAILED 01</text>
    <rect x="324" y="303" width="159" height="146" rx="8" fill="#0F161D" stroke="#A0B7BC" stroke-opacity=".10"/><text x="339" y="329" fill="#D8E3E0" font-family="Inter,Segoe UI,sans-serif" font-size="10" font-weight="600">Latest change</text>
    <text x="339" y="354" fill="#65757A" font-family="ui-monospace,monospace" font-size="7">price</text><rect x="339" y="363" width="56" height="18" rx="3" fill="#F17C86" fill-opacity=".10"/><text x="347" y="375" fill="#D88990" font-family="ui-monospace,monospace" font-size="7">− 129.00</text><rect x="403" y="363" width="65" height="18" rx="3" fill="#70E1C1" fill-opacity=".10"/><text x="411" y="375" fill="#87D8C2" font-family="ui-monospace,monospace" font-size="7">+ 109.00</text>
    <text x="339" y="402" fill="#65757A" font-family="ui-monospace,monospace" font-size="7">availability</text><text x="339" y="424" fill="#F0B860" font-family="ui-monospace,monospace" font-size="8">2 fields changed</text>
  </g>
  <text x="72" y="595" fill="#46545A" font-family="ui-monospace,monospace" font-size="11">JMDcore / TypeScript · Next.js · PostgreSQL · Redis · S3</text>
</svg>
